<svg width="16" height="12" viewBox="0 0 18 18" fill="#808191"
    xmlns="http://www.w3.org/2000/svg">
    <path d="M18 8.40234C18 8.54297 17.874 8.65723 17.6221 8.74512C17.3701 8.83301 17.001 8.89453 16.5146 8.92969C16.0283 8.96484 15.627 8.98535 15.3105 8.99121C14.9941 8.99707 14.5781 9 14.0625 9C13.5469 9 13.1309 8.99707 12.8145 8.99121C12.498 8.98535 12.0967 8.96484 11.6104 8.92969C11.124 8.89453 10.7549 8.83301 10.5029 8.74512C10.251 8.65723 10.125 8.54297 10.125 8.40234C10.1367 7.91016 10.4062 7.4707 10.9336 7.08398C11.4609 6.69727 12.1289 6.43359 12.9375 6.29297V5.94141C11.8125 5.44922 11.25 4.21875 11.25 2.25C11.25 1.51172 11.5137 0.952148 12.041 0.571289C12.5684 0.19043 13.2451 0 14.0713 0C14.8975 0 15.5713 0.19043 16.0928 0.571289C16.6143 0.952148 16.875 1.51172 16.875 2.25C16.875 4.27734 16.3125 5.51367 15.1875 5.95898V6.29297C16.0078 6.43359 16.6787 6.69727 17.2002 7.08398C17.7217 7.4707 17.9883 7.91016 18 8.40234ZM3.9375 9C3.42188 9 3.00586 8.99707 2.68945 8.99121C2.37305 8.98535 1.97168 8.96484 1.48535 8.92969C0.999023 8.89453 0.629883 8.83301 0.37793 8.74512C0.125977 8.65723 0 8.54297 0 8.40234C0.0117188 7.91016 0.27832 7.4707 0.799805 7.08398C1.32129 6.69727 1.99219 6.43359 2.8125 6.29297V5.94141C1.6875 5.44922 1.125 4.21875 1.125 2.25C1.125 1.51172 1.38574 0.952148 1.90723 0.571289C2.42871 0.19043 3.10254 0 3.92871 0C4.75488 0 5.43164 0.19043 5.95898 0.571289C6.48633 0.952148 6.75 1.51172 6.75 2.25C6.75 4.27734 6.1875 5.51367 5.0625 5.95898V6.29297C5.87109 6.43359 6.53906 6.69727 7.06641 7.08398C7.59375 7.4707 7.86328 7.91016 7.875 8.40234C7.875 8.54297 7.74902 8.65723 7.49707 8.74512C7.24512 8.83301 6.87598 8.89453 6.38965 8.92969C5.90332 8.96484 5.50195 8.98535 5.18555 8.99121C4.86914 8.99707 4.45312 9 3.9375 9ZM3.36621 10.125C3.67676 10.125 3.94336 10.2334 4.16602 10.4502C4.38867 10.667 4.5 10.9336 4.5 11.25V15.1875C4.5 15.3398 4.55566 15.4717 4.66699 15.583C4.77832 15.6943 4.91016 15.75 5.0625 15.75H12.9375C13.0898 15.75 13.2217 15.6943 13.333 15.583C13.4443 15.4717 13.5 15.3398 13.5 15.1875V11.25C13.5 10.9336 13.6113 10.667 13.834 10.4502C14.0566 10.2334 14.3232 10.125 14.6338 10.125C14.9443 10.125 15.208 10.2334 15.4248 10.4502C15.6416 10.667 15.75 10.9336 15.75 11.25V15.75C15.75 16.3711 15.5303 16.9014 15.0908 17.3408C14.6514 17.7803 14.1211 18 13.5 18H4.5C3.87891 18 3.34863 17.7803 2.90918 17.3408C2.46973 16.9014 2.25 16.3711 2.25 15.75V11.25C2.25 10.9336 2.3584 10.667 2.5752 10.4502C2.79199 10.2334 3.05566 10.125 3.36621 10.125Z" fill="#808191"/>
</svg>
