<svg width="30" height="38" viewBox="0 0 30 38" fill="none" xmlns="http://www.w3.org/2000/svg">
<path d="M26.7056 37.8147C26.2858 37.8144 25.8715 37.7194 25.4935 37.5365C25.1155 37.3537 24.7834 37.0877 24.5222 36.7585C23.7137 35.8839 17.4652 29.7346 13.6364 25.9855C13.3714 25.7296 13.1595 25.4237 13.013 25.0854C12.8666 24.7472 12.7883 24.3832 12.7828 24.0144C12.7773 23.6457 12.8447 23.2795 12.981 22.937C13.1174 22.5944 13.32 22.2824 13.5773 22.0186C13.8345 21.7549 14.1413 21.5448 14.4799 21.4003C14.8186 21.2558 15.1824 21.1801 15.5504 21.1771C15.9185 21.174 16.2835 21.2441 16.6244 21.383C16.9653 21.5221 17.2754 21.7273 17.5368 21.9869C17.5641 22.0137 20.3217 24.7142 23.0587 27.4118L23.9163 28.2573V15.1259C23.9163 10.0193 19.8037 5.86464 14.7484 5.86464C9.69304 5.86464 5.58046 10.0193 5.58046 15.1259V35.0189C5.58046 35.7603 5.28648 36.4714 4.76322 36.9957C4.23995 37.5199 3.53024 37.8144 2.79022 37.8144C2.05021 37.8144 1.34051 37.5199 0.817239 36.9957C0.29397 36.4714 0 35.7603 0 35.0189V15.1259C0 6.93618 6.61607 0.273438 14.7484 0.273438C22.8806 0.273438 29.4967 6.93618 29.4967 15.1259V35.0189C29.4964 35.7603 29.2023 36.4714 28.6789 36.9958C28.1555 37.5201 27.4457 37.8146 26.7056 37.8147ZM24.1689 36.1805L24.17 36.183L24.1689 36.1805Z" fill="white"/>
</svg>
