<svg width="16" height="14" viewBox="0 0 19 24" fill="none" xmlns="http://www.w3.org/2000/svg">
<path d="M9.5 0C8.41182 0 7.64318 0.791111 7.26318 1.77778H0V24H19V1.77778H11.7368C11.3568 0.791111 10.5882 0 9.5 0ZM9.5 1.77778C9.975 1.77778 10.3636 2.17778 10.3636 2.66667V3.55556H12.9545V5.33333H6.04545V3.55556H8.63636V2.66667C8.63636 2.17778 9.025 1.77778 9.5 1.77778ZM1.72727 3.55556H4.31818V7.11111H14.6818V3.55556H17.2727V22.2222H1.72727V3.55556ZM3.45455 9.77778V11.5556H5.18182V9.77778H3.45455ZM6.90909 9.77778V11.5556H15.5455V9.77778H6.90909ZM3.45455 13.3333V15.1111H5.18182V13.3333H3.45455ZM6.90909 13.3333V15.1111H15.5455V13.3333H6.90909ZM3.45455 16.8889V18.6667H5.18182V16.8889H3.45455ZM6.90909 16.8889V18.6667H15.5455V16.8889H6.90909Z" fill="#808191"/>
</svg>
